<svg width="25" height="24" viewBox="0 0 25 24" fill="none" xmlns="http://www.w3.org/2000/svg">
<path d="M16.25 14H8.25C7.98478 14 7.73043 14.1054 7.54289 14.2929C7.35536 14.4804 7.25 14.7348 7.25 15C7.25 15.2652 7.35536 15.5196 7.54289 15.7071C7.73043 15.8946 7.98478 16 8.25 16H16.25C16.5152 16 16.7696 15.8946 16.9571 15.7071C17.1446 15.5196 17.25 15.2652 17.25 15C17.25 14.7348 17.1446 14.4804 16.9571 14.2929C16.7696 14.1054 16.5152 14 16.25 14ZM16.25 10H10.25C9.98478 10 9.73043 10.1054 9.54289 10.2929C9.35536 10.4804 9.25 10.7348 9.25 11C9.25 11.2652 9.35536 11.5196 9.54289 11.7071C9.73043 11.8946 9.98478 12 10.25 12H16.25C16.5152 12 16.7696 11.8946 16.9571 11.7071C17.1446 11.5196 17.25 11.2652 17.25 11C17.25 10.7348 17.1446 10.4804 16.9571 10.2929C16.7696 10.1054 16.5152 10 16.25 10ZM20.25 4H17.25V3C17.25 2.73478 17.1446 2.48043 16.9571 2.29289C16.7696 2.10536 16.5152 2 16.25 2C15.9848 2 15.7304 2.10536 15.5429 2.29289C15.3554 2.48043 15.25 2.73478 15.25 3V4H13.25V3C13.25 2.73478 13.1446 2.48043 12.9571 2.29289C12.7696 2.10536 12.5152 2 12.25 2C11.9848 2 11.7304 2.10536 11.5429 2.29289C11.3554 2.48043 11.25 2.73478 11.25 3V4H9.25V3C9.25 2.73478 9.14464 2.48043 8.95711 2.29289C8.76957 2.10536 8.51522 2 8.25 2C7.98478 2 7.73043 2.10536 7.54289 2.29289C7.35536 2.48043 7.25 2.73478 7.25 3V4H4.25C3.98478 4 3.73043 4.10536 3.54289 4.29289C3.35536 4.48043 3.25 4.73478 3.25 5V19C3.25 19.7956 3.56607 20.5587 4.12868 21.1213C4.69129 21.6839 5.45435 22 6.25 22H18.25C19.0456 22 19.8087 21.6839 20.3713 21.1213C20.9339 20.5587 21.25 19.7956 21.25 19V5C21.25 4.73478 21.1446 4.48043 20.9571 4.29289C20.7696 4.10536 20.5152 4 20.25 4V4ZM19.25 19C19.25 19.2652 19.1446 19.5196 18.9571 19.7071C18.7696 19.8946 18.5152 20 18.25 20H6.25C5.98478 20 5.73043 19.8946 5.54289 19.7071C5.35536 19.5196 5.25 19.2652 5.25 19V6H7.25V7C7.25 7.26522 7.35536 7.51957 7.54289 7.70711C7.73043 7.89464 7.98478 8 8.25 8C8.51522 8 8.76957 7.89464 8.95711 7.70711C9.14464 7.51957 9.25 7.26522 9.25 7V6H11.25V7C11.25 7.26522 11.3554 7.51957 11.5429 7.70711C11.7304 7.89464 11.9848 8 12.25 8C12.5152 8 12.7696 7.89464 12.9571 7.70711C13.1446 7.51957 13.25 7.26522 13.25 7V6H15.25V7C15.25 7.26522 15.3554 7.51957 15.5429 7.70711C15.7304 7.89464 15.9848 8 16.25 8C16.5152 8 16.7696 7.89464 16.9571 7.70711C17.1446 7.51957 17.25 7.26522 17.25 7V6H19.25V19Z" fill="#88889D"/>
</svg>
