<svg width="20" height="20" viewBox="0 0 20 20" fill="none" xmlns="http://www.w3.org/2000/svg">
<path d="M10 0C4.47596 0 0 4.47596 0 10C0 15.524 4.47596 20 10 20C15.524 20 20 15.524 20 10C20 4.47596 15.524 0 10 0ZM10 19.1683C4.94712 19.1683 0.831731 15.0577 0.831731 10C0.831731 4.94712 4.94231 0.831731 10 0.831731C15.0529 0.831731 19.1683 4.94231 19.1683 10C19.1683 15.0529 15.0529 19.1683 10 19.1683Z" fill="black"/>
<path d="M9.99991 10H5.38452V10.8317H10.8316V3.84616H9.99991V10Z" fill="black"/>
</svg>
