<svg width="20" height="21" viewBox="0 0 20 21" fill="none" xmlns="http://www.w3.org/2000/svg">
<path d="M5.79245 0.863014L5.07483 1.58632L7.61225 4.14588L0 11.8165L8.83735 20.726L18.6897 10.7935L9.85231 1.88604L8.32986 3.42057L5.79245 0.863014ZM9.85231 3.33265L17.2564 10.7935H2.45019L8.32986 4.86719L12.2529 8.81941L12.9706 8.0981L9.04946 4.14588L9.85231 3.33265ZM18.4795 11.305L17.1632 13.6068L17.0582 13.8226L16.9928 14.0504L16.961 14.2842L16.963 14.522L17.0047 14.7577L17.082 14.9815L17.191 15.1933L17.3337 15.3831L17.5022 15.551L17.6925 15.6888L17.9046 15.7947L18.1287 15.8667L18.3606 15.9046H18.5985L18.8304 15.8667L19.0544 15.7947L19.2665 15.6888L19.4568 15.551L19.6273 15.3831L19.7681 15.1933L19.8771 14.9815L19.9544 14.7577L19.996 14.522L20 14.2842L19.9683 14.0504L19.9009 13.8226L19.7998 13.6068L18.4795 11.305ZM1.43523 11.8165H16.2415L8.83735 19.2774L1.43523 11.8165ZM18.4795 13.3531L18.9196 14.1183L18.9712 14.2422L18.987 14.3761L18.9712 14.508L18.9196 14.6299L18.8383 14.7358L18.7353 14.8177L18.6104 14.8676L18.4795 14.8876L18.3487 14.8676L18.2278 14.8177L18.1207 14.7358L18.0414 14.6299L17.9899 14.508L17.972 14.3761L17.9899 14.2422L18.0414 14.1183L18.4795 13.3531Z" fill="#222222"/>
</svg>
