<svg width="15" height="15" viewBox="0 0 15 15" fill="none" xmlns="http://www.w3.org/2000/svg">
<path d="M1.25 7.5C1.25 7.25277 1.32331 7.0111 1.46066 6.80554C1.59801 6.59998 1.79324 6.43976 2.02165 6.34515C2.25005 6.25054 2.50139 6.22579 2.74386 6.27402C2.98634 6.32225 3.20907 6.4413 3.38388 6.61612C3.5587 6.79093 3.67775 7.01366 3.72598 7.25614C3.77421 7.49861 3.74946 7.74995 3.65485 7.97835C3.56024 8.20676 3.40002 8.40199 3.19446 8.53934C2.9889 8.67669 2.74723 8.75 2.5 8.75C2.16848 8.75 1.85054 8.6183 1.61612 8.38388C1.3817 8.14946 1.25 7.83152 1.25 7.5ZM7.5 8.75C7.74723 8.75 7.9889 8.67669 8.19446 8.53934C8.40002 8.40199 8.56024 8.20676 8.65485 7.97835C8.74946 7.74995 8.77421 7.49861 8.72598 7.25614C8.67775 7.01366 8.5587 6.79093 8.38388 6.61612C8.20907 6.4413 7.98634 6.32225 7.74386 6.27402C7.50139 6.22579 7.25005 6.25054 7.02165 6.34515C6.79324 6.43976 6.59801 6.59998 6.46066 6.80554C6.32331 7.0111 6.25 7.25277 6.25 7.5C6.25 7.83152 6.3817 8.14946 6.61612 8.38388C6.85054 8.6183 7.16848 8.75 7.5 8.75ZM12.5 6.25C12.2528 6.25 12.0111 6.32331 11.8055 6.46066C11.6 6.59802 11.4398 6.79324 11.3451 7.02165C11.2505 7.25005 11.2258 7.50139 11.274 7.74386C11.3222 7.98634 11.4413 8.20907 11.6161 8.38388C11.7909 8.5587 12.0137 8.67775 12.2561 8.72598C12.4986 8.77421 12.7499 8.74946 12.9784 8.65485C13.2068 8.56024 13.402 8.40002 13.5393 8.19446C13.6767 7.9889 13.75 7.74723 13.75 7.5C13.75 7.16848 13.6183 6.85054 13.3839 6.61612C13.1495 6.3817 12.8315 6.25 12.5 6.25Z" fill="#A5A5A5"/>
</svg>
