<svg width="25" height="24" viewBox="0 0 25 24" fill="none" xmlns="http://www.w3.org/2000/svg">
<path opacity="0.8" d="M15.96 12.71C16.9404 11.9387 17.656 10.8809 18.0072 9.68394C18.3585 8.48697 18.3279 7.21027 17.9198 6.03147C17.5117 4.85267 16.7463 3.83039 15.7301 3.10686C14.7139 2.38332 13.4974 1.99451 12.25 1.99451C11.0025 1.99451 9.78611 2.38332 8.76993 3.10686C7.75374 3.83039 6.98834 4.85267 6.58021 6.03147C6.17208 7.21027 6.14151 8.48697 6.49276 9.68394C6.84401 10.8809 7.5596 11.9387 8.54 12.71C6.86007 13.383 5.39428 14.4994 4.29889 15.9399C3.20349 17.3805 2.51956 19.0913 2.32 20.89C2.30555 21.0213 2.31711 21.1542 2.35402 21.2811C2.39093 21.4079 2.45246 21.5263 2.53511 21.6293C2.70202 21.8375 2.94478 21.9708 3.21 22C3.47521 22.0292 3.74116 21.9518 3.94932 21.7849C4.15749 21.618 4.29082 21.3752 4.32 21.11C4.53958 19.1552 5.47168 17.3498 6.93822 16.0388C8.40475 14.7278 10.3029 14.003 12.27 14.003C14.2371 14.003 16.1352 14.7278 17.6018 16.0388C19.0683 17.3498 20.0004 19.1552 20.22 21.11C20.2472 21.3557 20.3644 21.5827 20.5491 21.747C20.7338 21.9114 20.9728 22.0015 21.22 22H21.33C21.5921 21.9698 21.8317 21.8373 21.9966 21.6313C22.1614 21.4252 22.2381 21.1624 22.21 20.9C22.0095 19.0962 21.3219 17.381 20.2208 15.9382C19.1198 14.4954 17.6469 13.3795 15.96 12.71V12.71ZM12.25 12C11.4589 12 10.6855 11.7654 10.0277 11.3259C9.36992 10.8864 8.85723 10.2616 8.55448 9.53074C8.25173 8.79983 8.17251 7.99557 8.32686 7.21964C8.4812 6.44372 8.86216 5.73099 9.42157 5.17158C9.98098 4.61217 10.6937 4.2312 11.4696 4.07686C12.2456 3.92252 13.0498 4.00173 13.7807 4.30448C14.5116 4.60724 15.1363 5.11993 15.5759 5.77772C16.0154 6.43552 16.25 7.20888 16.25 8C16.25 9.06087 15.8286 10.0783 15.0784 10.8284C14.3283 11.5786 13.3109 12 12.25 12Z" fill="#88889D"/>
</svg>
